# xmcd CD database file
#
# Track frame offsets:
#	150
#	16394
#	34826
#	49870
#	67603
#	69044
#	89069
#	110048
#	127518
#	145839
#	163327
#	183243
#
# Disc length: 2863 seconds
#
# Revision: 2
# Processed by: cddbd v1.5.1PL0 Copyright (c) Steve Scherf et al.
# Submitted via: CDex 1.51
#
DISCID=9b0b2d0c
DTITLE=Soria - les portes cochères
DYEAR=2005
DGENRE=Jazz
TTITLE0=le cauchemar
TTITLE1=juillet août septembre
TTITLE2=adieu mon amour
TTITLE3=une fille perdue
TTITLE4=le p'tit gavroche
TTITLE5=ça me démange
TTITLE6=l'inconnue sur la terrasse
TTITLE7=tout ça va finir mal
TTITLE8=c'était hier
TTITLE9=les portes cochères
TTITLE10=la brume et l'amour
TTITLE11=ça n'a pas suffit
EXTD=YEAR: 2005
EXTT0=
EXTT1=
EXTT2=
EXTT3=
EXTT4=
EXTT5=
EXTT6=
EXTT7=
EXTT8=
EXTT9=
EXTT10=
EXTT11=
PLAYORDER=
